<?xml version="1.0" encoding="UTF-8"?>
<!DOCTYPE svg PUBLIC "-//W3C//DTD SVG 1.1//EN" "http://www.w3.org/Graphics/SVG/1.1/DTD/svg11.dtd">
<!-- Creator: CorelDRAW 2020 (64 Bit) -->
<svg xmlns="http://www.w3.org/2000/svg" xml:space="preserve" width="12.7mm" height="12.7mm" version="1.1" style="shape-rendering:geometricPrecision; text-rendering:geometricPrecision; image-rendering:optimizeQuality; fill-rule:evenodd; clip-rule:evenodd"
viewBox="0 0 1270 1270"
 xmlns:xlink="http://www.w3.org/1999/xlink"
 xmlns:xodm="http://www.corel.com/coreldraw/odm/2003">
 <defs>
  <style type="text/css">
   <![CDATA[
    .fil1 {fill:#901E73}
    .fil0 {fill:#FBE0E5}
   ]]>
  </style>
 </defs>
 <g id="Camada_x0020_1">
  <metadata id="CorelCorpID_0Corel-Layer"/>
  <g id="_2159325763168">
   <path class="fil0" d="M437.82 18.29c-31.27,51.53 -19.69,164.34 -4.73,225.28 57.59,234.61 267.44,242.33 434.4,303.88 125.82,46.4 216.49,137.82 151.05,306.14 -163.35,420.16 -685.49,359.15 -868.11,-46.3 -131.14,-291.16 37.21,-587.97 208,-691.16 -147.41,34.43 -309.16,242.08 -342.12,422.4 -46.77,255.94 58.81,444.28 187.96,561.48 354.47,321.66 923.77,92.13 923.77,-318.33 0,-486.45 -531.05,-316.27 -651.23,-623.65 -14.59,-37.32 -17.32,-102.64 -38.99,-139.74z"/>
   <path class="fil1" d="M696.39 1092.14c217.72,-49.5 184.79,-106.02 184.8,-183.36l-1.35 -313.51c-36.44,-25.89 -133.77,-49.34 -180.5,-57.61 -7.07,149.7 -1.92,400.11 -2.95,554.48z"/>
   <path class="fil0" d="M1180.79 772.93c-7.21,103.64 -45.09,207.13 -93.88,276.5 -62.35,88.66 -106.76,117.63 -180.93,178.95 77.28,-17.3 202.62,-132.04 240.73,-186.98 141.1,-203.43 160.44,-445.6 33.57,-654.93 -38.68,-63.83 -145.09,-193.6 -217.52,-209.59l-22.07 102.06c72.89,60.58 119.29,98.07 173.77,198.81 43.54,80.53 74.04,184.05 66.33,295.18z"/>
   <path class="fil1" d="M449.42 1067.62c68.16,8.02 97.58,32.79 183.9,31.07l1.27 -450.3 -183.02 1.11 -2.15 418.12z"/>
   <path class="fil1" d="M203.98 777.23c5.04,103.73 7.51,102.86 61.94,159.38 30.13,31.29 75.44,73.67 123.05,92.86l0.92 -249.25 -185.91 -2.99z"/>
   <circle class="fil1" cx="796.56" cy="163.06" r="96.3"/>
  </g>
 </g>
</svg>
